 <svg
    xmlns="http://www.w3.org/2000/svg"
    viewBox="0 0 24 24"
    width="24"
    height="24"
    fill="#64748B"
  >
    <path d="M7.75 2h8.5C19.55 2 22 4.45 22 7.75v8.5c0 3.3-2.45 5.75-5.75 5.75h-8.5C4.45 22 2 19.55 2 16.25v-8.5C2 4.45 4.45 2 7.75 2zm0-2C3.57 0 0 3.57 0 7.75v8.5C0 20.43 3.57 24 7.75 24h8.5C20.43 24 24 20.43 24 16.25v-8.5C24 3.57 20.43 0 16.25 0h-8.5zM12 5.75a6.25 6.25 0 100 12.5 6.25 6.25 0 000-12.5zm0 2.5a3.75 3.75 0 110 7.5 3.75 3.75 0 010-7.5zm6.5-4a1.5 1.5 0 100 3 1.5 1.5 0 000-3z" />
  </svg>