 <svg
    xmlns="http://www.w3.org/2000/svg"
    viewBox="0 0 24 24"
    width="24"
    height="24"
    fill="#64748B"
  >
    <path d="M22.23 0H1.77C.79 0 0 .77 0 1.72v20.55C0 23.23.79 24 1.77 24h20.46c.98 0 1.77-.77 1.77-1.73V1.72C24 .77 23.21 0 22.23 0zM7.12 20.45H3.56V9h3.56v11.45zM5.34 7.59C4.15 7.59 3.2 6.62 3.2 5.41S4.15 3.22 5.34 3.22s2.15.97 2.15 2.18-1 .19-2.15 2.19zm14.99 12.86h-3.56V14.8c0-1.34-.48-2.26-1.68-2.26-.92 0-1.46.63-1.7 1.24-.09.22-.11.53-.11.85v5.82h-3.56V9h3.42v1.56h.05c.48-.91 1.65-2.18 3.39-2.18 2.49 0 4.36 1.63 4.36 5.13v7.94z"/>
  </svg>