  <svg
    xmlns="http://www.w3.org/2000/svg"
    viewBox="0 0 24 24"
    width="24"
    height="24"
    fill="#64748B"
  >
    <path d="M24 4.557a9.83 9.83 0 01-2.828.775 4.932 4.932 0 002.165-2.724 9.865 9.865 0 01-3.127 1.195 4.924 4.924 0 00-8.388 4.49A13.978 13.978 0 011.671 3.149 4.921 4.921 0 003.195 9.72a4.903 4.903 0 01-2.23-.616c-.053 2.281 1.581 4.415 3.949 4.89a4.93 4.93 0 01-2.224.084c.626 1.956 2.444 3.377 4.6 3.417a9.867 9.867 0 01-6.102 2.105c-.396 0-.787-.023-1.175-.069a13.943 13.943 0 007.557 2.213c9.054 0 14.002-7.496 14.002-13.986 0-.213-.005-.425-.015-.637A10.012 10.012 0 0024 4.557z" />
  </svg>